<?xml version="1.0" encoding="iso-8859-1"?>
<!-- Generator: Adobe Illustrator 19.0.0, SVG Export Plug-In . SVG Version: 6.00 Build 0)  -->
<svg version="1.1" id="Layer_1" xmlns="http://www.w3.org/2000/svg" xmlns:xlink="http://www.w3.org/1999/xlink" x="0px" y="0px"
	 viewBox="0 0 503.467 503.467" style="enable-background:new 0 0 503.467 503.467;" xml:space="preserve">
<g transform="translate(17 1)">
	<path style="fill:#FFD0A1;" d="M362.467,34.84c0,0,17.067-31.573,51.2-31.573c0,34.133-8.533,76.8-8.533,76.8
		c5.973,14.507,8.533,30.72,8.533,51.2c0,59.733-51.2,145.067-145.067,145.067S123.533,191,123.533,131.267
		c0-20.48,2.56-36.693,8.533-51.2c0,0-8.533-42.667-8.533-76.8c34.133,0,51.2,31.573,51.2,31.573
		C196.92,24.6,227.64,20.333,268.6,20.333S340.28,24.6,362.467,34.84"/>
	<g>
		<path style="fill:#F2EDDA;" d="M225.933,447c-18.773,0-34.133,6.827-34.133,25.6c0,4.267,0.853,7.68,3.413,11.093
			c5.12,9.387,17.067,14.507,30.72,14.507h8.533c18.773,0,34.133-15.36,34.133-34.133c0,18.773,15.36,34.133,34.133,34.133h8.533
			c13.653,0,25.6-5.12,30.72-14.507c1.707-3.413,3.413-6.827,3.413-11.093c0-18.773-15.36-25.6-34.133-25.6
			c0-0.853,0-85.333,8.533-128c0,0,5.973-18.773,13.653-29.013l0.853-1.707c-11.947-5.12-34.133-11.093-64.853-11.947l0,0V447l0,0
			H248.12h21.333V276.333c-31.573,0-53.76,6.827-65.707,11.947v0.853C211.427,301.08,218.253,319,218.253,319
			C225.933,361.667,225.933,447,225.933,447z"/>
		<path style="fill:#F2EDDA;" d="M157.667,447h68.267c-18.773,0-34.133,6.827-34.133,25.6c0,4.267,0.853,7.68,3.413,11.093
			C185.827,498.2,166.2,498.2,166.2,498.2h-8.533c-18.773,0-34.133-10.24-34.133-25.6C123.533,453.827,138.893,447,157.667,447z
			 M140.6,370.2c0-51.2,51.2-76.8,51.2-76.8s3.413-2.56,11.093-5.12v0.853C210.573,301.08,217.4,319,217.4,319
			c8.533,42.667,8.533,128,8.533,128h-68.267C157.667,447,140.6,421.4,140.6,370.2z"/>
		<path style="fill:#F2EDDA;" d="M379.533,447c18.773,0,34.133,6.827,34.133,25.6c0,15.36-15.36,25.6-34.133,25.6H371
			c0,0-18.773,0-29.013-14.507c1.707-3.413,3.413-6.827,3.413-11.093c0-18.773-15.36-25.6-34.133-25.6H379.533z M345.4,293.4
			c0,0,51.2,25.6,51.2,76.8S379.533,447,379.533,447h-68.267c0,0,0-85.333,8.533-128c0,0,5.973-18.773,13.653-29.013l0.853-1.707
			C341.987,290.84,345.4,293.4,345.4,293.4z"/>
	</g>
	<path style="fill:#AE938D;" d="M294.2,165.4c0,9.387-11.093,34.133-25.6,34.133S243,174.787,243,165.4
		c0-8.533,11.093-8.533,25.6-8.533S294.2,156.867,294.2,165.4"/>
</g>
<path style="fill:#51565F;" d="M396.533,503.467H388c-2.56,0-4.267-1.707-4.267-4.267c0-2.56,1.707-4.267,4.267-4.267h8.533
	c14.507,0,29.867-7.68,29.867-21.333c0-14.507-10.24-21.333-29.867-21.333c-1.707,0-3.413-0.853-3.413-2.56
	c-0.853-1.707-0.853-3.413,0-4.267c0,0,16.213-25.6,16.213-74.24c0-47.787-48.64-72.533-48.64-73.387
	c-1.707-0.853-2.56-3.413-1.707-5.973c0.853-1.707,3.413-2.56,5.973-1.707c2.56,0.853,53.76,27.307,53.76,80.213
	c0,38.4-9.387,62.293-14.507,72.533c19.627,1.707,31.573,12.8,31.573,29.867C434.933,490.667,418.72,503.467,396.533,503.467z
	 M328.267,503.467h-8.533c-14.507,0-28.16-8.533-34.133-20.48c-5.973,11.947-19.627,20.48-34.133,20.48h-8.533
	c-22.187,0-38.4-12.8-38.4-29.867c0-17.92,11.947-28.16,34.133-29.867c0-17.92-0.853-86.187-8.533-122.88
	c-0.853-2.56,0.853-4.267,3.413-5.12c2.56-0.853,4.267,0.853,5.12,3.413c7.68,37.547,8.533,106.667,8.533,124.587h4.267
	c2.56,0,4.267,1.707,4.267,4.267c0,2.56-1.707,4.267-4.267,4.267h-8.533c-19.627,0-29.867,6.827-29.867,21.333
	c0,13.653,15.36,21.333,29.867,21.333h8.533c16.213,0,29.867-13.653,29.867-29.867v-153.6c0-2.56,1.707-4.267,4.267-4.267
	s4.267,1.707,4.267,4.267v153.6c0,16.213,13.653,29.867,29.867,29.867h8.533c14.507,0,29.867-7.68,29.867-21.333
	c0-14.507-10.24-21.333-29.867-21.333h-8.533c-2.56,0-4.267-1.707-4.267-4.267c0-2.56,1.707-4.267,4.267-4.267H324
	c0-17.92,0.853-87.04,8.533-124.587c0.853-2.56,2.56-3.413,5.12-3.413c2.56,0.853,3.413,2.56,3.413,5.12
	c-7.68,36.693-8.533,105.813-8.533,122.88c21.333,0.853,34.133,11.947,34.133,29.867
	C366.667,490.667,350.453,503.467,328.267,503.467z M183.2,503.467h-8.533c-22.187,0-38.4-12.8-38.4-29.867
	c0-17.067,11.093-27.307,31.573-29.867c-5.12-11.093-14.507-34.987-14.507-72.533c0-52.907,51.2-79.36,53.76-80.213
	c1.707-0.853,4.267,0,5.973,1.707c0.853,1.707,0,4.267-1.707,5.973c-0.853,0-48.64,24.747-48.64,73.387
	c0,49.493,16.213,74.24,16.213,74.24c0.853,1.707,0.853,3.413,0,4.267c-0.853,0.853-2.56,2.56-3.413,2.56
	c-19.627,0-29.867,6.827-29.867,21.333c0,13.653,15.36,21.333,29.867,21.333h8.533c2.56,0,4.267,1.707,4.267,4.267
	C188.32,502.614,185.76,503.467,183.2,503.467z M132,384c-0.853,0-11.947,0-21.333-11.093
	c-13.653-16.213-16.213-45.227-8.533-87.893c2.56-16.213-3.413-24.747-10.24-26.453c-5.12-1.707-12.8,1.707-16.213,11.947
	c-0.853,2.56-3.413,3.413-5.12,2.56c-2.56-0.853-3.413-3.413-2.56-5.12c5.12-15.36,17.067-19.627,26.453-17.067
	c10.24,2.56,20.48,15.36,16.213,36.693c-8.533,48.64-0.853,70.827,6.827,80.213C124.32,376.32,132,376.32,132,376.32
	c2.56,0,4.267,1.707,4.267,4.267C136.267,383.146,134.56,384,132,384z M285.6,281.6c-96.427,0-149.333-87.893-149.333-149.333
	c0-20.48,2.56-36.693,8.533-51.2c-1.707-7.68-8.533-45.227-8.533-76.8c0-2.56,1.707-4.267,4.267-4.267
	c29.867,0,46.933,22.187,52.907,30.72c22.187-9.387,52.907-13.653,92.16-13.653s69.973,4.267,92.16,13.653
	C383.733,22.187,400.8,0,430.667,0c2.56,0,4.267,1.707,4.267,4.267c0,31.573-6.827,69.12-8.533,76.8
	c5.973,15.36,8.533,30.72,8.533,51.2C434.933,193.707,382.027,281.6,285.6,281.6z M144.8,8.533
	c0.853,32.427,8.533,70.827,8.533,71.68s0,1.707,0,2.56c-5.973,14.507-8.533,29.867-8.533,49.493c0,57.173,50.347,140.8,140.8,140.8
	s140.8-83.627,140.8-140.8c0-19.627-2.56-34.987-8.533-49.493c0-0.853,0-1.707,0-2.56c0,0,7.68-39.253,8.533-71.68
	c-21.333,1.707-34.987,17.92-40.96,25.6c5.973,2.56,11.093,5.973,15.36,9.387c1.707,1.707,2.56,4.267,0.853,5.973
	c-1.707,1.707-4.267,2.56-5.973,0.853c-5.12-4.267-11.093-7.68-17.92-10.24h-0.853l0,0c-21.333-9.387-51.2-13.653-91.307-13.653
	s-69.973,4.267-92.16,13.653l0,0h-0.853c-6.827,3.413-12.8,6.827-17.92,10.24c-1.707,1.707-4.267,0.853-5.973-0.853
	c-1.707-1.707-0.853-4.267,0.853-5.973c4.267-3.413,9.387-6.827,15.36-9.387C180.64,26.453,166.133,10.24,144.8,8.533z
	 M319.733,238.933c-13.653,0-27.307-9.387-34.133-22.187c-6.827,12.8-20.48,22.187-34.133,22.187c-0.853,0-15.36,0-20.48-11.093
	c-0.853-1.707,0-4.267,1.707-5.973c1.707-0.853,4.267,0,5.973,1.707c3.413,5.973,12.8,5.973,13.653,5.973
	c13.653,0,27.307-12.8,29.867-26.453c-14.507-4.267-25.6-27.307-25.6-37.547c0-12.8,15.36-12.8,29.867-12.8
	c14.507,0,29.867,0,29.867,12.8c0,10.24-10.24,33.28-25.6,37.547c2.56,13.653,16.213,26.453,29.867,26.453c0,0,10.24,0,13.653-5.973
	c0.853-1.707,3.413-2.56,5.973-1.707c1.707,0.853,2.56,3.413,1.707,5.973C335.093,238.933,320.587,238.933,319.733,238.933z
	 M285.6,162.133c-12.8,0-21.333,0-21.333,4.267c0,7.68,10.24,29.867,21.333,29.867s21.333-22.187,21.333-29.867
	C306.933,162.133,298.4,162.133,285.6,162.133z M341.067,128c-5.12,0-8.533-3.413-8.533-8.533c0-5.12,3.413-8.533,8.533-8.533
	s8.533,3.413,8.533,8.533C349.6,124.587,346.187,128,341.067,128z M230.133,128c-5.12,0-8.533-3.413-8.533-8.533
	c0-5.12,3.413-8.533,8.533-8.533s8.533,3.413,8.533,8.533C238.667,124.587,235.253,128,230.133,128z"/>
<g>
</g>
<g>
</g>
<g>
</g>
<g>
</g>
<g>
</g>
<g>
</g>
<g>
</g>
<g>
</g>
<g>
</g>
<g>
</g>
<g>
</g>
<g>
</g>
<g>
</g>
<g>
</g>
<g>
</g>
</svg>
